<svg aria-hidden="true" style="position: absolute; width: 0; height: 0; overflow: hidden;" version="1.1" xmlns="http://www.w3.org/2000/svg" xmlns:xlink="http://www.w3.org/1999/xlink">
<defs>
<symbol id="Ellipse" viewBox="0 0 32 32">
    <path fill="#e5e5e5" style="fill: var(--color1, #e5e5e5)" d="M0 0h32v32h-32v-32z"></path>
    <path fill="#fff" style="fill: var(--color2, #fff)" d="M-282.667-451.2h682.667v2006.4h-682.667v-2006.4z"></path>
    <path fill="none" stroke="#e0e0e0" style="stroke: var(--color3, #e0e0e0)" stroke-linejoin="miter" stroke-linecap="butt" stroke-miterlimit="4" stroke-width="0.3556" d="M35.378 16c0 10.702-8.676 19.378-19.378 19.378s-19.378-8.676-19.378-19.378c0-10.702 8.676-19.378 19.378-19.378s19.378 8.676 19.378 19.378z"></path>
    <path fill="none" stroke="#4985ff" style="stroke: var(--color4, #4985ff)" stroke-linejoin="miter" stroke-linecap="butt" stroke-miterlimit="4" stroke-width="0.3556" d="M31.822 16c0 8.738-7.084 15.822-15.822 15.822s-15.822-7.084-15.822-15.822c0-8.738 7.084-15.822 15.822-15.822s15.822 7.084 15.822 15.822z"></path>
    <path fill="#4985ff" style="fill: var(--color4, #4985ff)" d="M22.874 8.889h-10.667c-0.131 0-0.237 0.106-0.237 0.237v3.556h0.474v-3.319h10.193v13.037c0.002 0.125-0.094 0.229-0.218 0.237-0.020 0-0.041-0.002-0.061-0.002-0.042-0.001-0.084-0.002-0.125-0.006-0.004 0-0.007 0-0.010-0.001-0.774-0.085-1.386-0.696-1.471-1.47 0-0.003-0.001-0.007-0.002-0.010-0.006-0.056-0.009-0.113-0.009-0.169v-0.474c0-0.131-0.106-0.237-0.237-0.237h-8.059v-4.267h-0.474v4.267h-1.896c-0.131 0-0.237 0.106-0.237 0.237v0.474c0.001 1.178 0.956 2.132 2.133 2.133h10.453c0.385-0.010 0.69-0.326 0.687-0.711v-13.274c0-0.131-0.106-0.237-0.237-0.237zM11.97 22.637c-0.916-0.001-1.658-0.743-1.659-1.659v-0.237h9.956v0.237c0 0.078 0.005 0.156 0.014 0.234 0.002 0.021 0.006 0.041 0.009 0.061 0.008 0.057 0.017 0.114 0.030 0.171 0.004 0.020 0.010 0.039 0.015 0.059 0.014 0.057 0.031 0.113 0.050 0.169 0.005 0.016 0.011 0.032 0.017 0.047 0.022 0.059 0.046 0.116 0.073 0.173 0.006 0.012 0.011 0.024 0.017 0.034 0.030 0.060 0.062 0.118 0.098 0.175 0.005 0.008 0.009 0.015 0.014 0.024 0.039 0.061 0.080 0.119 0.125 0.175l0.008 0.010c0.052 0.065 0.107 0.127 0.166 0.186 0.051 0.051 0.104 0.098 0.159 0.142l-9.088-0.001z"></path>
    <path fill="#4985ff" style="fill: var(--color4, #4985ff)" d="M16.711 15.526c0.063 0 0.123-0.025 0.168-0.069l0.948-0.948c0.093-0.093 0.093-0.243 0-0.335l-0.948-0.948c-0.044-0.044-0.105-0.069-0.168-0.069h-6.637c-0.655 0-1.185 0.531-1.185 1.185s0.531 1.185 1.185 1.185h6.637zM16.65 13.667l0.674 0.674-0.674 0.674-0.169-0.674 0.169-0.674zM10.785 13.63h5.386l-0.119 0.474h-4.793v0.474h4.793l0.119 0.474h-5.386v-1.422zM9.363 14.341c0-0.393 0.318-0.711 0.711-0.711h0.237v1.422h-0.237c-0.393 0-0.711-0.318-0.711-0.711z"></path>
    <path fill="#4985ff" style="fill: var(--color4, #4985ff)" d="M14.34 19.081h7.111c0.131 0 0.237-0.106 0.237-0.237v-7.111c-0-0.131-0.106-0.237-0.237-0.237-0.063 0-0.123 0.025-0.168 0.069l-7.111 7.111c-0.093 0.093-0.092 0.243 0 0.335 0.044 0.044 0.105 0.069 0.168 0.069zM21.215 12.306v0.613h-0.474v0.474h0.474v0.474h-0.474v0.474h0.474v0.474h-0.474v0.474h0.474v0.474h-0.474v0.474h0.474v0.474h-0.474v0.474h0.474v0.474h-0.474v0.474h0.474v0.474h-0.474v-0.474h-0.474v0.474h-0.474v-0.474h-0.474v0.474h-0.474v-0.474h-0.474v0.474h-0.474v-0.474h-0.474v0.474h-0.474v-0.474h-0.474v0.474h-0.474v-0.474h-0.474v0.474h-0.613l6.302-6.302z"></path>
    <path fill="#4985ff" style="fill: var(--color4, #4985ff)" d="M17.774 17.659h2.255c0.131 0 0.237-0.106 0.237-0.237v-2.255c0-0.131-0.106-0.237-0.237-0.237-0.063 0-0.123 0.025-0.168 0.069l-2.255 2.255c-0.093 0.093-0.093 0.243 0 0.335 0.044 0.044 0.105 0.069 0.168 0.069zM19.793 15.739v1.446h-1.446l1.446-1.446z"></path>
    <path fill="#4985ff" style="fill: var(--color4, #4985ff)" d="M19.793 10.311h-4.741v0.474h4.741v-0.474z"></path>
    <path fill="#4985ff" style="fill: var(--color4, #4985ff)" d="M20.504 11.259h-6.163v0.474h6.163v-0.474z"></path>
    <path fill="#4985ff" style="fill: var(--color4, #4985ff)" d="M14.341 16.237h-1.422v0.474h1.422v-0.474z"></path>
    <path fill="#4985ff" style="fill: var(--color4, #4985ff)" d="M13.867 17.185h-0.948v0.474h0.948v-0.474z"></path>
</symbol>

<symbol id="web-programming" viewBox="0 0 32 32">
    <path fill="#4985ff" style="fill: var(--color1, #4985ff)" d="M12.626 22.425c-0.121 0-0.243-0.042-0.342-0.126l-3.419-2.911c-0.118-0.1-0.186-0.247-0.186-0.402s0.068-0.302 0.186-0.402l3.419-2.911c0.222-0.189 0.555-0.162 0.745 0.060s0.162 0.556-0.060 0.745l-2.946 2.509 2.946 2.509c0.222 0.189 0.249 0.523 0.060 0.745-0.105 0.123-0.253 0.186-0.403 0.186z"></path>
    <path fill="#4985ff" style="fill: var(--color1, #4985ff)" d="M19.374 22.425c-0.149 0-0.298-0.063-0.402-0.186-0.189-0.222-0.162-0.555 0.060-0.745l2.946-2.509-2.946-2.509c-0.222-0.189-0.249-0.522-0.060-0.745s0.523-0.249 0.744-0.060l3.419 2.911c0.118 0.1 0.186 0.247 0.186 0.402s-0.068 0.302-0.186 0.402l-3.419 2.911c-0.099 0.085-0.221 0.126-0.342 0.126z"></path>
    <path fill="#4985ff" style="fill: var(--color1, #4985ff)" d="M14.79 24.609c-0.036 0-0.073-0.004-0.11-0.012-0.285-0.060-0.468-0.34-0.408-0.626l2.131-10.116c0.060-0.285 0.34-0.468 0.626-0.408s0.468 0.34 0.408 0.626l-2.131 10.116c-0.052 0.249-0.272 0.42-0.516 0.42z"></path>
    <path fill="#4985ff" style="fill: var(--color1, #4985ff)" d="M28.453 30.12h-24.906c-1.956 0-3.547-1.591-3.547-3.547v-21.139c0-1.956 1.591-3.547 3.547-3.547h24.906c1.956 0 3.547 1.591 3.547 3.547v21.139c0 1.956-1.591 3.547-3.547 3.547zM3.547 2.944c-1.373 0-2.491 1.117-2.491 2.491v21.139c0 1.373 1.117 2.491 2.491 2.491h24.906c1.373 0 2.491-1.117 2.491-2.491v-21.139c0-1.373-1.117-2.491-2.491-2.491h-24.906z"></path>
    <path fill="#4985ff" style="fill: var(--color1, #4985ff)" d="M31.472 10.346h-30.943c-0.292 0-0.528-0.236-0.528-0.528s0.236-0.528 0.528-0.528h30.943c0.292 0 0.528 0.237 0.528 0.528s-0.236 0.528-0.528 0.528z"></path>
    <path fill="#4985ff" style="fill: var(--color1, #4985ff)" d="M9.026 7.818c-0.922 0-1.672-0.75-1.672-1.672s0.75-1.672 1.672-1.672c0.922 0 1.672 0.75 1.672 1.672s-0.75 1.672-1.672 1.672zM9.026 5.531c-0.339 0-0.615 0.276-0.615 0.615s0.276 0.615 0.615 0.615c0.339 0 0.615-0.276 0.615-0.615s-0.276-0.615-0.615-0.615z"></path>
    <path fill="#4985ff" style="fill: var(--color1, #4985ff)" d="M3.891 7.802c-0.922 0-1.672-0.75-1.672-1.672s0.75-1.672 1.672-1.672c0.922 0 1.672 0.75 1.672 1.672s-0.75 1.672-1.672 1.672zM3.891 5.515c-0.339 0-0.615 0.276-0.615 0.615s0.276 0.615 0.615 0.615c0.339 0 0.615-0.276 0.615-0.615s-0.276-0.615-0.615-0.615z"></path>
    <path fill="#4985ff" style="fill: var(--color1, #4985ff)" d="M14.163 7.834c-0.921 0-1.672-0.75-1.672-1.672s0.75-1.672 1.672-1.672c0.922 0 1.672 0.75 1.672 1.672s-0.75 1.672-1.672 1.672zM14.163 5.547c-0.339 0-0.615 0.276-0.615 0.615s0.276 0.615 0.615 0.615c0.339 0 0.615-0.276 0.615-0.615s-0.276-0.615-0.615-0.615z"></path>
</symbol>

<symbol id="video" viewBox="0 0 96 32">
    <path fill="#fff" style="fill: var(--color1, #fff)" d="M42.693 17.475v1.229h-0.476v-0.783h-2.949l-0.005 0.783h-0.476l0.005-1.229h0.174c0.225-0.014 0.384-0.191 0.476-0.532 0.092-0.345 0.148-0.829 0.169-1.454l0.036-1.152h2.519v3.139h0.527zM40.061 15.534c-0.017 0.505-0.058 0.923-0.123 1.254-0.061 0.331-0.162 0.56-0.302 0.686h2.022v-2.693h-1.572l-0.026 0.753zM43.311 15.206h0.492v1.976l1.664-1.976h0.445v2.714h-0.492v-1.976l-1.659 1.976h-0.451v-2.714zM48.715 16.512c0.351 0.089 0.527 0.309 0.527 0.66 0 0.239-0.091 0.423-0.271 0.553-0.178 0.13-0.444 0.195-0.799 0.195h-1.306v-2.714h1.26c0.321 0 0.572 0.061 0.753 0.184 0.181 0.119 0.271 0.29 0.271 0.512 0 0.143-0.039 0.268-0.118 0.374-0.075 0.102-0.181 0.181-0.317 0.236zM47.348 16.374h0.737c0.188 0 0.329-0.034 0.425-0.102 0.099-0.068 0.148-0.167 0.148-0.297 0-0.259-0.191-0.389-0.573-0.389h-0.737v0.788zM48.136 17.541c0.205 0 0.358-0.032 0.461-0.097s0.154-0.166 0.154-0.302c0-0.14-0.048-0.244-0.143-0.312-0.092-0.068-0.239-0.102-0.44-0.102h-0.819v0.814h0.788zM50.011 15.206h0.492v1.976l1.664-1.976h0.445v2.714h-0.492v-1.976l-1.659 1.976h-0.451v-2.714zM55.588 15.636h-0.993v2.284h-0.492v-2.284h-0.993v-0.43h2.478v0.43zM56.091 15.206h0.492v1.976l1.664-1.976h0.445v2.714h-0.492v-1.976l-1.659 1.976h-0.451v-2.714zM60.829 17.951c-0.276 0-0.524-0.060-0.742-0.179-0.215-0.119-0.384-0.283-0.507-0.492-0.123-0.212-0.184-0.451-0.184-0.717s0.061-0.503 0.184-0.712c0.123-0.212 0.292-0.375 0.507-0.492 0.219-0.119 0.466-0.179 0.742-0.179 0.246 0 0.464 0.050 0.655 0.148 0.195 0.099 0.345 0.242 0.451 0.43l-0.374 0.241c-0.085-0.13-0.191-0.227-0.317-0.292s-0.266-0.097-0.42-0.097c-0.177 0-0.338 0.039-0.481 0.118-0.14 0.079-0.251 0.191-0.333 0.338-0.078 0.143-0.118 0.309-0.118 0.497 0 0.191 0.039 0.36 0.118 0.507 0.082 0.143 0.193 0.254 0.333 0.333 0.143 0.078 0.304 0.118 0.481 0.118 0.154 0 0.294-0.032 0.42-0.097s0.232-0.162 0.317-0.292l0.374 0.236c-0.106 0.188-0.256 0.333-0.451 0.435-0.191 0.099-0.41 0.148-0.655 0.148zM63.826 16.128c0.345 0.003 0.608 0.082 0.788 0.236s0.271 0.37 0.271 0.65c0 0.294-0.099 0.521-0.297 0.681-0.195 0.157-0.475 0.234-0.84 0.23l-1.178-0.005v-2.714h0.492v0.916l0.763 0.005zM63.708 17.551c0.222 0.003 0.389-0.041 0.502-0.133 0.116-0.092 0.174-0.229 0.174-0.41 0-0.177-0.056-0.307-0.169-0.389-0.109-0.082-0.278-0.125-0.507-0.128l-0.645-0.010v1.065l0.645 0.005zM68.74 16.512c0.352 0.089 0.527 0.309 0.527 0.66 0 0.239-0.091 0.423-0.271 0.553-0.178 0.13-0.444 0.195-0.799 0.195h-1.306v-2.714h1.26c0.321 0 0.572 0.061 0.753 0.184 0.181 0.119 0.271 0.29 0.271 0.512 0 0.143-0.039 0.268-0.118 0.374-0.075 0.102-0.181 0.181-0.317 0.236zM67.372 16.374h0.737c0.188 0 0.329-0.034 0.425-0.102 0.099-0.068 0.148-0.167 0.148-0.297 0-0.259-0.191-0.389-0.573-0.389h-0.737v0.788zM68.161 17.541c0.205 0 0.358-0.032 0.461-0.097s0.154-0.166 0.154-0.302c0-0.14-0.048-0.244-0.143-0.312-0.092-0.068-0.239-0.102-0.44-0.102h-0.819v0.814h0.788zM70.036 15.206h0.492v2.714h-0.492v-2.714zM70.282 14.684c-0.096 0-0.176-0.031-0.241-0.092-0.061-0.061-0.092-0.137-0.092-0.225s0.031-0.164 0.092-0.225c0.065-0.065 0.145-0.097 0.241-0.097s0.174 0.031 0.236 0.092c0.065 0.058 0.097 0.131 0.097 0.22 0 0.092-0.032 0.171-0.097 0.236-0.061 0.061-0.14 0.092-0.236 0.092zM74.246 17.49v1.060h-0.461v-0.63h-2.268v0.63h-0.466v-1.060h0.143c0.174-0.010 0.294-0.133 0.358-0.369s0.109-0.568 0.133-0.998l0.041-0.916h2.104v2.284h0.415zM72.136 16.159c-0.013 0.341-0.043 0.625-0.087 0.85-0.041 0.222-0.118 0.382-0.23 0.481h1.521v-1.853h-1.178l-0.026 0.522zM77.339 16.579c0 0.038-0.003 0.087-0.010 0.148h-2.202c0.031 0.239 0.135 0.432 0.312 0.579 0.181 0.143 0.404 0.215 0.671 0.215 0.324 0 0.586-0.109 0.783-0.328l0.271 0.317c-0.123 0.143-0.276 0.253-0.461 0.328-0.181 0.075-0.384 0.113-0.609 0.113-0.287 0-0.541-0.058-0.763-0.174-0.222-0.119-0.394-0.285-0.517-0.497-0.119-0.212-0.179-0.451-0.179-0.717 0-0.263 0.058-0.5 0.174-0.712 0.12-0.212 0.282-0.375 0.486-0.492 0.208-0.119 0.442-0.179 0.701-0.179s0.49 0.060 0.691 0.179c0.205 0.116 0.364 0.28 0.476 0.492 0.116 0.212 0.174 0.454 0.174 0.727zM75.997 15.596c-0.236 0-0.433 0.072-0.594 0.215-0.157 0.143-0.249 0.331-0.276 0.563h1.741c-0.027-0.229-0.121-0.415-0.282-0.558-0.157-0.147-0.353-0.22-0.589-0.22zM79.263 17.951c-0.27 0-0.512-0.060-0.727-0.179s-0.384-0.283-0.507-0.492c-0.119-0.212-0.179-0.451-0.179-0.717s0.060-0.503 0.179-0.712c0.123-0.212 0.292-0.375 0.507-0.492 0.215-0.119 0.457-0.179 0.727-0.179s0.51 0.060 0.722 0.179c0.215 0.116 0.382 0.28 0.502 0.492 0.123 0.208 0.184 0.445 0.184 0.712s-0.061 0.505-0.184 0.717c-0.119 0.208-0.287 0.372-0.502 0.492-0.212 0.119-0.452 0.179-0.722 0.179zM79.263 17.521c0.174 0 0.329-0.039 0.466-0.118 0.14-0.082 0.249-0.195 0.328-0.338 0.078-0.147 0.118-0.314 0.118-0.502s-0.039-0.353-0.118-0.497c-0.078-0.147-0.188-0.259-0.328-0.338-0.137-0.079-0.292-0.118-0.466-0.118s-0.331 0.039-0.471 0.118c-0.137 0.079-0.246 0.191-0.328 0.338-0.078 0.143-0.118 0.309-0.118 0.497s0.039 0.355 0.118 0.502c0.082 0.143 0.191 0.256 0.328 0.338 0.14 0.078 0.297 0.118 0.471 0.118z"></path>
    <path fill="#4985ff" style="fill: var(--color2, #4985ff)" d="M32 16c0 5.302-4.298 9.6-9.6 9.6s-9.6-4.298-9.6-9.6c0-5.302 4.298-9.6 9.6-9.6s9.6 4.298 9.6 9.6z"></path>
    <path fill="#fff" style="fill: var(--color1, #fff)" d="M22.4 6.4c-5.302 0-9.6 4.298-9.6 9.6s4.298 9.6 9.6 9.6c5.302 0 9.6-4.298 9.6-9.6s-4.298-9.6-9.6-9.6zM25.718 16.509l-4.8 3c-0.097 0.061-0.208 0.091-0.318 0.091-0.1 0-0.2-0.025-0.291-0.075-0.191-0.106-0.309-0.306-0.309-0.525v-6c0-0.218 0.118-0.419 0.309-0.525s0.424-0.1 0.609 0.016l4.8 3c0.175 0.11 0.282 0.302 0.282 0.509s-0.107 0.399-0.282 0.509z"></path>
</symbol>

<symbol id="envelope" viewBox="0 0 37 32">
    <path fill="#999" style="fill: var(--color1, #999)" d="M32.416 1.95h-27.9c-2.491 0-4.515 2.025-4.515 4.515v19.069c0 2.491 2.025 4.515 4.515 4.515h27.893c2.491 0 4.515-2.025 4.515-4.515v-19.061c0.008-2.491-2.017-4.523-4.508-4.523zM34.868 25.534c0 1.352-1.1 2.452-2.452 2.452h-27.9c-1.352 0-2.452-1.1-2.452-2.452v-19.061c0-1.352 1.1-2.452 2.452-2.452h27.893c1.352 0 2.452 1.1 2.452 2.452v19.061h0.008z"></path>
    <path fill="#999" style="fill: var(--color1, #999)" d="M23.286 15.763l9.030-8.098c0.42-0.382 0.458-1.031 0.076-1.459-0.382-0.42-1.031-0.458-1.459-0.076l-12.453 11.177-2.429-2.17c-0.008-0.008-0.015-0.015-0.015-0.023-0.053-0.053-0.107-0.099-0.168-0.145l-9.886-8.847c-0.428-0.382-1.077-0.344-1.459 0.084s-0.344 1.077 0.084 1.459l9.137 8.167-9.099 8.518c-0.413 0.39-0.435 1.039-0.046 1.459 0.206 0.214 0.481 0.329 0.756 0.329 0.252 0 0.504-0.092 0.703-0.275l9.236-8.64 2.506 2.238c0.199 0.176 0.443 0.26 0.688 0.26s0.497-0.092 0.688-0.267l2.575-2.307 9.183 8.725c0.199 0.191 0.459 0.283 0.711 0.283 0.275 0 0.542-0.107 0.749-0.321 0.39-0.413 0.374-1.070-0.038-1.459l-9.068-8.61z"></path>
</symbol>

<symbol id="map" viewBox="0 0 32 32">
    <path fill="#999" style="fill: var(--color1, #999)" d="M15.978 0c-6.467 0-11.728 5.261-11.728 11.728 0 2.971 1.872 7.168 5.564 12.475 2.698 3.88 5.353 6.882 5.464 7.008l0.7 0.789 0.7-0.789c0.112-0.126 2.766-3.128 5.464-7.008 3.692-5.307 5.564-9.505 5.564-12.475 0-6.467-5.261-11.728-11.728-11.728zM20.616 23.12c-1.824 2.624-3.667 4.882-4.639 6.035-0.969-1.149-2.805-3.399-4.628-6.019-3.421-4.917-5.229-8.862-5.229-11.407 0-5.435 4.422-9.857 9.857-9.857s9.857 4.422 9.857 9.857c0 2.542-1.804 6.481-5.218 11.392z"></path>
    <path fill="#999" style="fill: var(--color1, #999)" d="M15.976 4.334c-3.817 0-6.922 3.105-6.922 6.922s3.105 6.922 6.922 6.922c3.817 0 6.922-3.105 6.922-6.922s-3.105-6.922-6.922-6.922zM15.976 16.307c-2.785 0-5.051-2.266-5.051-5.051s2.266-5.051 5.051-5.051c2.785 0 5.051 2.266 5.051 5.051s-2.266 5.051-5.051 5.051z"></path>
</symbol>

<symbol id="call" viewBox="0 0 32 32">
    <path fill="#999" style="fill: var(--color1, #999)" d="M31.16 24.687l-6.477-4.319c-0.822-0.544-1.924-0.365-2.531 0.411l-1.887 2.426c-0.242 0.32-0.683 0.412-1.034 0.218l-0.359-0.198c-1.19-0.648-2.67-1.456-5.652-4.439s-3.791-4.465-4.44-5.652l-0.197-0.359c-0.198-0.351-0.107-0.793 0.213-1.038l2.424-1.886c0.776-0.608 0.955-1.709 0.412-2.531l-4.319-6.477c-0.557-0.837-1.673-1.089-2.535-0.571l-2.708 1.627c-0.851 0.5-1.475 1.311-1.742 2.261-0.975 3.554-0.242 9.687 8.793 18.722 7.187 7.186 12.537 9.118 16.214 9.118 0.846 0.004 1.689-0.106 2.506-0.327 0.951-0.266 1.761-0.891 2.261-1.742l1.629-2.707c0.519-0.862 0.268-1.979-0.57-2.536zM30.812 26.676l-1.625 2.708c-0.359 0.614-0.942 1.066-1.626 1.261-3.281 0.901-9.012 0.155-17.685-8.519s-9.419-14.404-8.519-17.685c0.195-0.685 0.647-1.269 1.262-1.629l2.708-1.625c0.374-0.225 0.859-0.116 1.1 0.247l4.316 6.476c0.236 0.357 0.158 0.835-0.178 1.099l-2.425 1.886c-0.738 0.564-0.949 1.585-0.494 2.395l0.193 0.35c0.682 1.25 1.529 2.805 4.622 5.898s4.648 3.94 5.897 4.622l0.35 0.193c0.81 0.454 1.831 0.243 2.395-0.494l1.886-2.425c0.264-0.336 0.742-0.414 1.099-0.178l6.476 4.319c0.364 0.241 0.473 0.726 0.247 1.1z"></path>
    <path fill="#999" style="fill: var(--color1, #999)" d="M18.133 5.336c5.004 0.006 9.060 4.061 9.065 9.065 0 0.295 0.239 0.533 0.533 0.533s0.533-0.239 0.533-0.533c-0.006-5.593-4.539-10.126-10.132-10.132-0.294 0-0.533 0.239-0.533 0.533s0.239 0.533 0.533 0.533z"></path>
    <path fill="#999" style="fill: var(--color1, #999)" d="M18.133 8.536c3.238 0.004 5.862 2.628 5.866 5.866 0 0.294 0.239 0.533 0.533 0.533s0.533-0.239 0.533-0.533c-0.004-3.827-3.106-6.928-6.932-6.932-0.294 0-0.533 0.239-0.533 0.533s0.239 0.533 0.533 0.533z"></path>
    <path fill="#999" style="fill: var(--color1, #999)" d="M18.133 11.736c1.472 0.002 2.665 1.194 2.666 2.666 0 0.295 0.239 0.533 0.533 0.533s0.533-0.239 0.533-0.533c-0.002-2.061-1.672-3.73-3.733-3.733-0.294 0-0.533 0.239-0.533 0.533s0.239 0.533 0.533 0.533z"></path>
</symbol>

<symbol id="arrow" viewBox="0 0 19 32">
    <path fill="#999" style="fill: var(--color1, #999)" d="M3.624 30.090c-0.198 0.198-0.446 0.298-0.719 0.298s-0.521-0.099-0.719-0.298c-0.397-0.397-0.397-1.042 0-1.439l12.651-12.651-12.651-12.651c-0.397-0.397-0.397-1.042 0-1.439s1.042-0.397 1.439 0l13.371 13.371c0.397 0.397 0.397 1.042 0 1.439l-13.371 13.371z"></path>
</symbol>
</defs>
</svg>
